<svg version="1.1" id="icon" xmlns="http://www.w3.org/2000/svg" xmlns:xlink="http://www.w3.org/1999/xlink" x="0px" y="0px" viewBox="0 0 128 128" style="enable-background:new 0 0 128 128;" xml:space="preserve"><rect style="fill:#f5f5f5" width="128" height="128"/><g><path style="fill:#999" d="M82,51.6L80.4,50L50,80.4l1.6,1.6l2.3-2.3h23.5c1.3,0,2.3-1,2.3-2.3V53.9L82,51.6z M77.4,77.4H56.2l8.9-8.9l2.7,2.7c0.9,0.9,2.3,0.9,3.2,0l1.8-1.8l4.6,4.6V77.4z M77.4,70.8l-3-3c-0.9-0.9-2.3-0.9-3.2,0l-1.8,1.8l-2.7-2.7l10.7-10.7V70.8z"/><path style="fill:#999" d="M54.6,72.9v-3.4l5.7-5.7l1.6,1.6l1.6-1.6l-1.6-1.6c-0.9-0.9-2.3-0.9-3.2,0l-4.1,4.1V54.6h18.3v-2.3H54.6c-1.3,0-2.3,1-2.3,2.3v18.3H54.6z"/></g></svg>