<svg width="32" height="20" xmlns="http://www.w3.org/2000/svg">

 <g>
  <title>Layer 1</title>
  <g stroke="null" id="Tripadvisor">
   <path stroke="null" id="svg_1" d="m23.46338,8.8601a2.64205,2.64205 0 1 0 2.6314,2.6314a2.64205,2.64205 0 0 0 -2.6314,-2.6314zm5.04973,-2.85512l0,0l2.40768,-2.6527l-5.43325,0a16.73654,16.73654 0 0 0 -9.48156,-2.94035a17.04549,17.04549 0 0 0 -9.58809,2.92969l-5.32672,0l2.38637,2.61009l0,0a6.62644,6.62644 0 0 0 -0.9375,1.06534a7.4574,7.4574 0 0 0 11.03696,9.93965l2.42898,2.6314l2.37572,-2.59944a7.4574,7.4574 0 0 0 10.65343,-10.41906a6.66905,6.66905 0 0 0 -0.55398,-0.56463l0.03196,0zm-19.96453,10.51494a5.02842,5.02842 0 1 1 5.02842,-5.02842a5.02842,5.02842 0 0 1 -5.02842,5.02842zm7.4574,-5.02842c0,-3.61151 -2.42898,-6.24291 -5.56109,-7.4574a12.37929,12.37929 0 0 1 5.56109,-1.15057a12.13426,12.13426 0 0 1 5.52913,1.12926a8.35229,8.35229 0 0 0 -5.52913,7.47871zm7.4574,5.06038a5.02842,5.02842 0 1 1 5.02842,-5.02842a5.02842,5.02842 0 0 1 -5.02842,5.02842zm-12.28341,-5.06038a2.6314,2.6314 0 1 1 -2.6314,-2.6314a2.6314,2.6314 0 0 1 2.6314,2.6314z"/>
  </g>
 </g>
</svg>